{"title":"[IFA1] The Story of Saiunkoku Season 2 [Dual Audio] [Animax Dub]","uid":8944138,"size":202130381,"categoryP":"video","categoryS":"tv_shows","magnet":"?xt=urn:btih:c13fc1cfd7e57e1884b56850d61c27d1d6c257ab&amp;dn=%5BIFA1%5D+The+Story+of+Saiunkoku+Season+2+%5BDual+Audio%5D+%5BAnimax+Dub%5D&amp;tr=udp%3A%2F%2Ftracker.openbittorrent.com%3A80&amp;tr=udp%3A%2F%2Fopen.demonii.com%3A1337&amp;tr=udp%3A%2F%2Ftracker.coppersurfer.tk%3A6969&amp;tr=udp%3A%2F%2Fexodus.desync.com%3A6969","seeders":0,"leechers":1,"uploader":"IFA1","files":5,"time":1379732276,"description":"The Story of Saiunkoku Second Season (English Dub)\n\nAlternate Title: Colourcloud Palace Season 2, Saiunkoku Monogatari Second Series (Japanese)\n\n[quote=&quot;&quot;&gt;Plot Summary: Shuurei needs to deal with more obstacles in the new series. More danger comes her way but at the same time meeting friends who will help her with her work as an official.\n\n\n\nInfo :\n\nType: TV Series\nEpisodes: 39\nAverage File Size: ~65 MB\nVideo: h264/AVC\nContainer: MKV\nAudio 1: English (Animax)\nAudio 2: Japanese\nAnimax Audio recorded and timed by : Inuyashakagomefa1\n\n\nFan-Sub (used for adding Animax Audio): C1Anime &amp; Animanda\n\nSource: AnimeIndia.com\n\nSubmitter's Note: If you liked the show then please seed as much as possible to keep this torrent alive because I am not sure if I can keep it alive by myself. Consider buying the official DVDs when they are available. Not for sale or rent.\n\n\nMediaInfo:\n\nGeneral\nUnique ID : 252976983477663140146726899353181714198 (0xBE519842FAF68EBC9536970B7B637716)\nComplete name : D:[IFA1] The Story of Saiunkoku Season 2 [Ep 01-03] [m480p] [Dual Audio] [Animax Dub][IFA1][asckj1]-CCP_S2_01_DA.mkv\nFormat : Matroska\nFormat version : Version 2\nFile size : 67.7 MiB\nDuration : 24mn 58s\nOverall bit rate mode : Variable\nOverall bit rate : 379 Kbps\nMovie name : AnimeIndia.com/AnimaxDubbed.Blogspot.in\nEncoded date : UTC 2012-06-12 10:29:44\nWriting application : mkvmerge v4.4.0 ('Die Wiederkehr') built on Oct 31 2010 21:52:48\nWriting library : libebml v1.0.0 + libmatroska v1.0.0\nAttachment : Yes / Yes\n\nVideo\nID : 1\nFormat : AVC\nFormat/Info : Advanced Video Codec\nFormat profile : &lt;a class=&quot;__cf_email__&quot; href=&quot;/cdn-cgi/l/email-protection&quot; data-cfemail=&quot;8ec6e7e9e6cec2bda0be&quot;&gt;[email&amp;#160;protected]&lt;/a&gt;&lt;script cf-hash='f9e31' type=&quot;text/javascript&quot;&gt;\n/* &lt;![CDATA[ */!function(){try{var t=&quot;currentScript&quot;in document?document.currentScript:function(){for(var t=document.getElementsByTagName(&quot;script&quot;),e=t.length;e--;)if(t[e].getAttribute(&quot;cf-hash&quot;))return t[e]}();if(t&amp;&amp;t.previousSibling){var e,r,n,i,c=t.previousSibling,a=c.getAttribute(&quot;data-cfemail&quot;);if(a){for(e=&quot;&quot;,r=parseInt(a.substr(0,2),16),n=2;a.length-n;n+=2)i=parseInt(a.substr(n,2),16)^r,e+=String.fromCharCode(i);e=document.createTextNode(e),c.parentNode.replaceChild(e,c)}}}catch(u){}}();/* ]]&gt; */&lt;/script&gt;\nFormat settings, CABAC : Yes\nFormat settings, ReFrames : 7 frames\nMuxing mode : Header stripping\nCodec ID : V_MPEG4/ISO/AVC\nDuration : 24mn 58s\nBit rate : 209 Kbps\nWidth : 704 pixels\nHeight : 400 pixels\nDisplay aspect ratio : 16:9\nFrame rate mode : Constant\nFrame rate : 23.976 fps\nColor space : YUV\nChroma subsampling : 4:2:0\nBit depth : 8 bits\nScan type : Progressive\nBits/(Pixel*Frame) : 0.031\nStream size : 37.3 MiB (55%)\nTitle : Re-encoded by asckj1\nWriting library : x264 core 112\nEncoding settings : cabac=1 // deblock=1:1:1 / analyse=0x3:0x133 / me=umh / subme=10 / psy=1 / psy_rd=0.00:0.00 // me_range=21 / chroma_me=1 / trellis=2 / 8x8dct=1 / cqm=0 / deadzone=21,11 / fast_pskip=1 / chroma_qp_offset=0 / threads=3 / sliced_threads=0 / nr=0 / decimate=1 / interlaced=0 / constrained_intra=0 / bframes=7 / b_pyramid=2 / b_adapt=2 / b_bias=0 / direct=1 / weightb=1 / open_gop=0 / weightp=2 / keyint=240 / keyint_min=23 / scenecut=40 / intra_refresh=0 / rc_lookahead=50 / rc=crf / mbtree=1 / crf=24.0 / qcomp=0.60 / qpmin=3 / qpmax=51 / qpstep=4 / ip_ratio=1.40 / aq=1:1.00\nLanguage : English\nDefault : Yes\nForced : No\nColor primaries : BT.601 NTSC\nTransfer characteristics : BT.709\nMatrix coefficients : BT.601\n\nAudio #1\nID : 2\nFormat : MPEG Audio\nFormat version : Version 1\nFormat profile : Layer 3\nMode : Joint stereo\nMode extension : Intensity Stereo + MS Stereo\nMuxing mode : Header stripping\nCodec ID : A_MPEG/L3\nCodec ID/Hint : MP3\nDuration : 24mn 58s\nBit rate mode : Constant\nBit rate : 96.0 Kbps\nChannel(s) : 2 channels\nSampling rate : 44.1 KHz\nCompression mode : Lossy\nStream size : 17.2 MiB (25%)\nTitle : Animax Dubbed, Audio and Synced by Inuyashakagomefa1, AnimeAnimaxDub.blogspot.in\nLanguage : English\nDefault : Yes\nForced : No\n\nAudio #2\nID : 3\nFormat : Vorbis\nFormat settings, Floor : 1\nCodec ID : A_VORBIS\nDuration : 24mn 58s\nBit rate mode : Variable\nBit rate : 66.4 Kbps\nChannel(s) : 2 channels\nSampling rate : 48.0 KHz\nCompression mode : Lossy\nStream size : 11.9 MiB (18%)\nWriting library : aoTuV b5c (UTC 2008-12-15)\nLanguage : Japanese\nDefault : No\nForced : No\n\nText #1\nID : 4\nFormat : ASS\nCodec ID : S_TEXT/ASS\nCodec ID/Info : Advanced Sub Station Alpha\nCompression mode : Lossless\nTitle : Styled ASS\nLanguage : English\nDefault : Yes\nForced : No\n\nText #2\nID : 5\nFormat : UTF-8\nCodec ID : S_TEXT/UTF8\nCodec ID/Info : UTF-8 Plain Text\nTitle : Unstyled SRT\nLanguage : English\nDefault : No\nForced : No\n\nMenu\n00:00:00.000 : en:Chapter 1\n00:01:30.507 : en:Chapter 2\n00:13:22.510 : en:Chapter 3\n00:23:30.618 : en:Chapter 4\n00:24:45.567 : en:Chapter 5\n","torrent":{"xt":"urn:btih:c13fc1cfd7e57e1884b56850d61c27d1d6c257ab","amp;dn":"%5BIFA1%5D+The+Story+of+Saiunkoku+Season+2+%5BDual+Audio%5D+%5BAnimax+Dub%5D","amp;tr":["udp%3A%2F%2Ftracker.openbittorrent.com%3A80","udp%3A%2F%2Fopen.demonii.com%3A1337","udp%3A%2F%2Ftracker.coppersurfer.tk%3A6969","udp%3A%2F%2Fexodus.desync.com%3A6969"],"infoHash":"c13fc1cfd7e57e1884b56850d61c27d1d6c257ab","infoHashBuffer":{"type":"Buffer","data":[193,63,193,207,215,229,126,24,132,181,104,80,214,28,39,209,214,194,87,171]},"announce":[],"urlList":[]}}